Format : MPEG-4
Format profile : Base Media
Codec ID : isom
File size : 761 MiB
Duration : 26mn 57s
Overall bit rate mode : Variable
Overall bit rate : 3 947 Kbps
Writing application : Lavf52.93.0

Video
ID : 1
Format : AVC
Format/Info : Advanced Video Codec
Format profile : High@L4.0
Format settings, CABAC : Yes
Format settings, ReFrames : 4 frames
Codec ID : avc1
Codec ID/Info : Advanced Video Coding
Duration : 26mn 57s
Bit rate mode : Variable
Bit rate : 3 868 Kbps
Width : 1 920 pixels
Height : 1 080 pixels
Display aspect ratio : 16:9
Frame rate mode : Constant
Frame rate : 25.000 fps
Color space : YUV
Chroma subsampling : 4:2:0
Bit depth : 8 bits
Scan type : Progressive
Bits/(Pixel*Frame) : 0.075
Stream size : 748 MiB (98%)
Language : Hungarian


Audio
ID : 2
Format : AAC
Format/Info : Advanced Audio Codec
Format profile : LC
Codec ID : 40
Duration : 26mn 57s
Bit rate mode : Variable
Bit rate : 63.9 Kbps
Channel(s) : 2 channels
Channel positions : Front: L R
Sampling rate : 44.1 KHz
Compression mode : Lossy
Delay relative to video : -1ms
Stream size : 12.3 MiB (2%)
Language : English
